<?xml version="1.0" encoding="utf-8"?>
<!-- Generator: Adobe Illustrator 18.0.0, SVG Export Plug-In . SVG Version: 6.00 Build 0)  -->
<!DOCTYPE svg PUBLIC "-//W3C//DTD SVG 1.1//EN" "http://www.w3.org/Graphics/SVG/1.1/DTD/svg11.dtd">
<svg version="1.1" id="Layer_1" xmlns="http://www.w3.org/2000/svg" xmlns:xlink="http://www.w3.org/1999/xlink" x="0px" y="0px"
	 viewBox="0 0 134.2 72" enable-background="new 0 0 134.2 72" xml:space="preserve">
<g>
	<path fill="#010101" d="M124.2,36l9.6-16.6c0.5-0.8,0.5-1.9,0-2.8L125,1.4c-0.5-0.8-1.4-1.4-2.4-1.4h-17.6c-1,0-1.9,0.5-2.4,1.4
		L93.1,18H72.4L62.7,1.4C62.2,0.5,61.3,0,60.3,0H42.7c-1,0-1.9,0.5-2.4,1.4L30.8,18H11.5c-1,0-1.9,0.5-2.4,1.4L0.4,34.6
		c-0.5,0.8-0.5,1.9,0,2.8l8.8,15.3c0.5,0.8,1.4,1.4,2.4,1.4h19.2l9.6,16.6c0.5,0.8,1.4,1.4,2.4,1.4h17.6c1,0,1.9-0.5,2.4-1.4
		L72.2,54H93l9.6,16.6c0.5,0.8,1.4,1.4,2.4,1.4h17.6c1,0,1.9-0.5,2.4-1.4l8.8-15.3c0.5-0.8,0.5-1.9,0-2.8L124.2,36z"/>
	<path fill="#FBD900" d="M94.8,53.2l8.9-15.4c0.2-0.5,0.8-0.7,1.3-0.7h17.7c0.5,0,1,0.3,1.3,0.7l8.9,15.4c0.2,0.5,0.2,1,0,1.5
		l-8.9,15.4c-0.2,0.5-0.8,0.7-1.3,0.7H105c-0.5,0-1-0.3-1.3-0.7l-8.9-15.4C94.5,54.3,94.5,53.7,94.8,53.2"/>
	<path fill="#FBD900" d="M32.5,53.2l8.9-15.4c0.2-0.5,0.8-0.7,1.3-0.7h17.7c0.5,0,1,0.3,1.3,0.7l8.9,15.4c0.2,0.5,0.2,1,0,1.5
		l-8.9,15.4c-0.2,0.5-0.8,0.7-1.3,0.7H42.7c-0.5,0-1-0.3-1.3-0.7l-8.9-15.4C32.2,54.3,32.2,53.7,32.5,53.2"/>
	<polygon fill="#FFFFFF" points="16,42.5 10.9,42.5 10.9,30.9 16,30.9 16,35.4 23.8,35.4 23.8,30.9 29,30.9 29,42.5 23.9,42.5 
		23.9,37.9 16,37.9 	"/>
	<path fill="#FFFFFF" d="M88,30.9c-1.8,2.7-3.5,5.4-5.4,8.3c-1.8-2.9-3.6-5.6-5.4-8.3h-5.4c0,0.1,0.1,0.2,0.1,0.3
		c2.4,3.3,4.8,6.7,7.2,10c0.3,0.4,0.7,0.7,1.2,0.9c0.8,0.4,1.5,0.4,2.3,0.4s1.5-0.1,2.3-0.4c0.4-0.2,0.9-0.5,1.2-0.9
		c2.4-3.3,4.8-6.7,7.2-10c0.1-0.1,0.1-0.2,0.1-0.3L88,30.9L88,30.9z"/>
	<rect x="48.8" y="12.2" fill="#FFFFFF" width="5.1" height="11.7"/>
	<rect x="48.8" y="48.2" fill="#010101" width="5.1" height="11.7"/>
	<path fill="#FFFFFF" d="M122.1,18v1.3h-10.9v0.9c0,1,0.3,1.3,1.9,1.3c0.5,0,1.1,0,1.5,0c2.1,0,4.1,0,6.2,0c0.4,0,0.8,0,1.3,0v2.4
		c0,0-0.5,0-0.7,0c-3.3,0-6.6,0-9.9,0c-1.1,0-1.9-0.1-2.8-0.2c-1.7-0.2-2.7-1-2.7-2.5V18v-3.2c0.1-1.4,1.1-2.2,2.7-2.5
		c0.9-0.1,1.8-0.2,2.8-0.2c3.3,0,6.6,0,9.9,0c0.2,0,0.7,0,0.7,0v2.4c-0.5,0-0.9,0-1.3,0c-2.1,0-4.1,0-6.2,0c-0.5,0-1.1,0-1.5,0
		c-1.6,0-1.9,0.3-1.9,1.3v0.9h10.9V18z"/>
	<path fill="#010101" d="M106,54v1.3h10.9v0.9c0,1-0.3,1.3-1.9,1.3c-0.5,0-1.1,0-1.5,0c-2.1,0-4.1,0-6.2,0c-0.4,0-0.8,0-1.3,0v2.4
		c0,0,0.5,0,0.7,0c3.3,0,6.6,0,9.9,0c1.1,0,1.9-0.1,2.8-0.2c1.7-0.2,2.7-1,2.7-2.5V54v-3.2c-0.1-1.4-1.1-2.2-2.7-2.5
		c-0.9-0.1-1.8-0.2-2.8-0.2c-3.3,0-6.6,0-9.9,0c-0.2,0-0.7,0-0.7,0v2.4c0.5,0,0.9,0,1.3,0c2.1,0,4.1,0,6.2,0c0.5,0,1.1,0,1.5,0
		c1.6,0,1.9,0.3,1.9,1.3v0.9H106V54z"/>
</g>
</svg>
